<svg xmlns="http://www.w3.org/2000/svg" viewBox="0 0 240 240">
  <ellipse cx="120" cy="222" rx="70" ry="10" fill="#000000" opacity="0.06"/>
  <path d="M182 188 q46 6 46 -30 q0 -22 -20 -26" fill="none" stroke="#E6D2AE" stroke-width="22" stroke-linecap="round"/>
  <path d="M182 188 q46 6 46 -30 q0 -22 -20 -26" fill="none" stroke="#F4E8D4" stroke-width="15" stroke-linecap="round"/>
  <rect x="74" y="196" width="36" height="26" rx="13" fill="#F4E8D4" stroke="#E6D2AE" stroke-width="2"/>
  <rect x="130" y="196" width="36" height="26" rx="13" fill="#F4E8D4" stroke="#E6D2AE" stroke-width="2"/>
  <g stroke="#E6D2AE" stroke-width="2" stroke-linecap="round">
    <line x1="86" y1="210" x2="86" y2="219"/><line x1="98" y1="210" x2="98" y2="219"/>
    <line x1="142" y1="210" x2="142" y2="219"/><line x1="154" y1="210" x2="154" y2="219"/>
  </g>
  <path d="M58 64 Q66 22 82 24 Q96 28 104 60 Z" fill="#F4E8D4" stroke="#F4E8D4" stroke-width="6" stroke-linejoin="round"/>
  <path d="M182 64 Q174 22 158 24 Q144 28 136 60 Z" fill="#F4E8D4" stroke="#F4E8D4" stroke-width="6" stroke-linejoin="round"/>
  <path d="M70 58 Q76 38 84 40 Q92 43 96 56 Z" fill="#EBA7AE"/>
  <path d="M170 58 Q164 38 156 40 Q148 43 144 56 Z" fill="#EBA7AE"/>
  <rect x="42" y="52" width="156" height="150" rx="40" fill="#F4E8D4"/>
  <rect x="60" y="62" width="120" height="16" rx="8" fill="#FBF3E6" opacity="0.7"/>
  <ellipse cx="60" cy="140" rx="9" ry="6" fill="#E89B7A" opacity="0.5"/>
  <ellipse cx="180" cy="140" rx="9" ry="6" fill="#E89B7A" opacity="0.5"/>
  <rect x="64" y="80" width="112" height="104" rx="20" fill="#E3AC4F"/>
  <rect x="70" y="86" width="100" height="92" rx="14" fill="#F1C84E"/>
  <rect x="76" y="92" width="88" height="10" rx="5" fill="#F7DA74" opacity="0.7"/>
  <rect x="98" y="124" width="16" height="17" rx="5" fill="#3A332C"/>
  <rect x="126" y="124" width="16" height="17" rx="5" fill="#3A332C"/>
  <g transform="translate(149,150) scale(0.16)" fill="#D97757" shape-rendering="crispEdges">
    <rect x="10" y="0" width="10" height="10"/><rect x="20" y="0" width="10" height="10"/>
    <rect x="40" y="0" width="10" height="10"/><rect x="50" y="0" width="10" height="10"/>
    <rect x="0" y="10" width="70" height="10"/><rect x="0" y="20" width="70" height="10"/>
    <rect x="10" y="30" width="50" height="10"/><rect x="20" y="40" width="30" height="10"/>
    <rect x="30" y="50" width="10" height="10"/>
  </g>
</svg>
